<?xml version="1.0" encoding="utf-8"?>
<!-- Generator: Adobe Illustrator 16.0.3, SVG Export Plug-In . SVG Version: 6.00 Build 0)  -->
<!DOCTYPE svg PUBLIC "-//W3C//DTD SVG 1.1//EN" "http://www.w3.org/Graphics/SVG/1.1/DTD/svg11.dtd">
<svg version="1.1" id="Ebene_1" xmlns="http://www.w3.org/2000/svg" xmlns:xlink="http://www.w3.org/1999/xlink" x="0px" y="0px"
	 width="293.724px" height="293.25px" viewBox="0 0 293.724 293.25" enable-background="new 0 0 293.724 293.25"
	 xml:space="preserve">
<polygon fill="#0072B3" points="164.144,15.854 184.202,4.828 196.251,24.289 218.421,18.599 225.253,40.446 248.144,40.448 
	249.327,63.306 271.497,69 266.958,91.433 287.015,102.464 277.038,123.065 293.724,138.735 278.938,156.209 291.202,175.537 
	272.538,188.785 279.606,210.553 258.233,218.742 259.669,241.588 236.929,244.205 232.64,266.686 209.964,263.566 200.216,284.277 
	179.026,275.615 164.437,293.25 146.069,279.592 127.551,293.043 113.156,275.246 91.875,283.67 82.36,262.854 59.65,265.721 
	55.61,243.189 32.902,240.318 34.593,217.492 13.312,209.064 20.625,187.375 2.109,173.92 14.588,154.73 0,137.094 16.857,121.61 
	7.114,100.899 27.293,90.096 23.007,67.61 45.237,62.163 46.677,39.321 69.563,39.574 76.641,17.808 98.745,23.745 111.012,4.419 
	130.947,15.668 147.634,0 "/>
</svg>
